<svg width="138" height="48" viewBox="0 0 138 48" fill="none" xmlns="http://www.w3.org/2000/svg">
<path d="M16.1176 19.3777H27.5761V9.78418H33.1179V37.093H27.5761V24.4843H16.1176V37.093H10.5703V9.78418H16.1176V19.3777Z" fill="#6B6B6B"/>
<path d="M93.4669 32.3851H102.562V37.0925H83.0703L93.6946 24.3826C94.6367 23.2564 95.5836 21.9872 96.251 20.6762C96.6624 19.8539 97.0204 18.9065 97.0204 17.9769C97.0204 17.0176 96.7801 16.0999 96.0782 15.4147C95.3512 14.7175 94.3855 14.4911 93.4088 14.4911C92.4619 14.4911 91.6219 14.7533 90.9372 15.4147C90.2275 16.094 89.9166 16.952 89.8396 17.9174L89.791 18.5251H84.4474V17.8637C84.4474 15.4802 85.2168 13.3828 87.0085 11.7799C88.8881 10.1114 91.289 9.53345 93.7495 9.53345C96.0657 9.53345 98.3598 10.0578 100.123 11.6309C101.83 13.1444 102.519 15.1585 102.519 17.393C102.519 19.1925 102.018 20.9086 101.202 22.4936C100.654 23.5603 99.9049 24.5971 99.1826 25.5505C98.1164 26.9567 96.9733 28.3153 95.8223 29.656L93.4669 32.3851Z" fill="#6B6B6B"/>
<path d="M104.781 9.53345H110.293V25.9676C110.293 27.6301 110.572 29.5249 111.741 30.7941C112.862 32.0157 114.512 32.3494 116.109 32.3494C117.698 32.3494 119.333 32.0097 120.452 30.7941C121.614 29.5249 121.9 27.6301 121.9 25.9676V9.53345H127.441V26.3609C127.441 29.376 126.81 32.5341 124.582 34.7269C122.346 36.9257 119.122 37.5334 116.096 37.5334C113.064 37.5334 109.858 36.9257 107.628 34.7329C105.401 32.5341 104.781 29.3641 104.781 26.3609V9.53345Z" fill="#6B6B6B"/>
<path d="M51.0906 29.6493C51.1133 31.7111 50.285 33.6833 48.8074 35.1132C48.0624 35.8282 47.1932 36.4004 46.2338 36.7879C44.2977 37.5744 42.1402 37.5744 40.2033 36.7879C39.2556 36.4065 38.392 35.8343 37.665 35.1132C36.9262 34.4103 36.3365 33.5581 35.9369 32.6167C34.6972 29.7208 35.3889 26.3601 37.665 24.1851C38.392 23.47 39.2556 22.8981 40.2033 22.5106C42.1457 21.7302 44.3087 21.7302 46.2519 22.5106C47.2042 22.8981 48.0749 23.47 48.8074 24.1851C50.285 25.6213 51.1078 27.5935 51.0906 29.6493ZM43.2244 33.9754C44.3322 33.9754 45.2563 33.5702 45.9841 32.7537C46.7104 31.9372 47.0731 30.9004 47.0731 29.6493C47.0731 28.4159 46.7041 27.3909 45.9716 26.5626C45.2328 25.7343 44.315 25.3233 43.2244 25.3233C42.1103 25.3233 41.187 25.7343 40.4592 26.5626C39.733 27.3791 39.3695 28.4159 39.3695 29.6552C39.3695 30.9124 39.7267 31.9493 40.4412 32.7596C41.1627 33.5702 42.0868 33.9754 43.2244 33.9754ZM70.498 36.9843H66.7436L65.8799 30.6146C65.8258 30.1675 65.7661 29.6672 65.7127 29.1129C65.6648 28.5647 65.6169 27.9629 65.5824 27.3136C65.4858 27.9391 65.3013 28.7197 65.0273 29.6493C64.9676 29.8399 64.9205 29.9889 64.8962 30.0843L62.8941 36.9843H60.2184L58.2163 30.0843C58.1865 29.9889 58.1449 29.8399 58.0923 29.6493C57.812 28.7197 57.6267 27.945 57.5372 27.3254C57.5019 27.8856 57.4548 28.4336 57.4006 28.982C57.3472 29.5302 57.2813 30.0725 57.2098 30.6146L56.3462 36.9843H52.6153L54.8859 22.2547H58.8609L61.0828 29.8519C61.0946 29.9053 61.1244 29.9889 61.1606 30.1141C61.3686 30.7933 61.4997 31.3715 61.5531 31.854C61.5829 31.5621 61.6363 31.27 61.7031 30.984C61.78 30.6623 61.8821 30.2749 62.0061 29.8279L64.2469 22.2547H68.2337L70.498 36.9843ZM72.6547 36.9843V22.2547H81.6821V25.4901H76.5694V28.0465H81.3892V31.1984H76.5694V33.6894H81.6821V36.9843H72.6547Z" fill="#6B6B6B"/>
</svg>
